<?xml version="1.0" encoding="UTF-8" standalone="no"?>
<!DOCTYPE svg PUBLIC "-//W3C//DTD SVG 1.1//EN"
 "http://www.w3.org/Graphics/SVG/1.1/DTD/svg11.dtd">
<!-- Generated by graphviz version 2.46.0 (20210119.1425)
 -->
<!-- Title: dependencies Pages: 1 -->
<svg width="984pt" height="284pt"
 viewBox="0.00 0.00 984.00 284.00" xmlns="http://www.w3.org/2000/svg" xmlns:xlink="http://www.w3.org/1999/xlink">
<g id="graph0" class="graph" transform="scale(1 1) rotate(0) translate(4 280)">
<title>dependencies</title>
<polygon fill="white" stroke="transparent" points="-4,4 -4,-280 980,-280 980,4 -4,4"/>
<text text-anchor="start" x="467.01" y="-42.4" font-family="sans-serif" font-weight="bold" font-size="14.00">Legend</text>
<polygon fill="#ffffb3" stroke="transparent" points="254,-10 254,-30 274,-30 274,-10 254,-10"/>
<text text-anchor="start" x="277.63" y="-15.4" font-family="sans-serif" font-size="14.00"> &#160;Declarations</text>
<polygon fill="#8dd3c7" stroke="transparent" points="367,-10 367,-30 387,-30 387,-10 367,-10"/>
<text text-anchor="start" x="390.73" y="-15.4" font-family="sans-serif" font-size="14.00"> &#160;Module</text>
<polygon fill="#80b1d3" stroke="transparent" points="453,-10 453,-30 473,-30 473,-10 453,-10"/>
<text text-anchor="start" x="476.78" y="-15.4" font-family="sans-serif" font-size="14.00"> &#160;Bootstrap</text>
<polygon fill="#fdb462" stroke="transparent" points="550,-10 550,-30 570,-30 570,-10 550,-10"/>
<text text-anchor="start" x="573.67" y="-15.4" font-family="sans-serif" font-size="14.00"> &#160;Providers</text>
<polygon fill="#fb8072" stroke="transparent" points="646,-10 646,-30 666,-30 666,-10 646,-10"/>
<text text-anchor="start" x="669.73" y="-15.4" font-family="sans-serif" font-size="14.00"> &#160;Exports</text>
<g id="clust1" class="cluster">
<title>cluster_SharedModule</title>
<polygon fill="none" stroke="black" stroke-dasharray="1,5" points="8,-70 8,-268 968,-268 968,-70 8,-70"/>
</g>
<g id="clust11" class="cluster">
<title>cluster_SharedModule_exports</title>
<polygon fill="none" stroke="black" points="51,-208 51,-260 926,-260 926,-208 51,-208"/>
</g>
<g id="clust2" class="cluster">
<title>cluster_SharedModule_declarations</title>
<polygon fill="none" stroke="black" points="16,-78 16,-130 960,-130 960,-78 16,-78"/>
</g>
<!-- BandeauComponent -->
<g id="node1" class="node">
<title>BandeauComponent</title>
<polygon fill="#ffffb3" stroke="black" points="952.31,-122 821.69,-122 821.69,-86 952.31,-86 952.31,-122"/>
<text text-anchor="middle" x="887" y="-99.8" font-family="Times,serif" font-size="14.00">BandeauComponent</text>
</g>
<!-- SharedModule -->
<g id="node8" class="node">
<title>SharedModule</title>
<polygon fill="#8dd3c7" stroke="black" points="489.42,-187 486.42,-191 465.42,-191 462.42,-187 390.58,-187 390.58,-151 489.42,-151 489.42,-187"/>
<text text-anchor="middle" x="440" y="-164.8" font-family="Times,serif" font-size="14.00">SharedModule</text>
</g>
<!-- BandeauComponent&#45;&gt;SharedModule -->
<g id="edge1" class="edge">
<title>BandeauComponent&#45;&gt;SharedModule</title>
<path fill="none" stroke="black" d="M869.88,-122.11C869.88,-141.34 869.88,-169 869.88,-169 869.88,-169 499.31,-169 499.31,-169"/>
<polygon fill="black" stroke="black" points="499.31,-165.5 489.31,-169 499.31,-172.5 499.31,-165.5"/>
</g>
<!-- ButtonActionComponent -->
<g id="node2" class="node">
<title>ButtonActionComponent</title>
<polygon fill="#ffffb3" stroke="black" points="803.55,-122 646.45,-122 646.45,-86 803.55,-86 803.55,-122"/>
<text text-anchor="middle" x="725" y="-99.8" font-family="Times,serif" font-size="14.00">ButtonActionComponent</text>
</g>
<!-- ButtonActionComponent&#45;&gt;SharedModule -->
<g id="edge2" class="edge">
<title>ButtonActionComponent&#45;&gt;SharedModule</title>
<path fill="none" stroke="black" d="M706.38,-122.02C706.38,-139.37 706.38,-163 706.38,-163 706.38,-163 499.48,-163 499.48,-163"/>
<polygon fill="black" stroke="black" points="499.48,-159.5 489.48,-163 499.48,-166.5 499.48,-159.5"/>
</g>
<!-- ButtonComponent -->
<g id="node3" class="node">
<title>ButtonComponent</title>
<polygon fill="#ffffb3" stroke="black" points="627.95,-122 508.05,-122 508.05,-86 627.95,-86 627.95,-122"/>
<text text-anchor="middle" x="568" y="-99.8" font-family="Times,serif" font-size="14.00">ButtonComponent</text>
</g>
<!-- ButtonComponent&#45;&gt;SharedModule -->
<g id="edge3" class="edge">
<title>ButtonComponent&#45;&gt;SharedModule</title>
<path fill="none" stroke="black" d="M547.88,-122.24C547.88,-137.57 547.88,-157 547.88,-157 547.88,-157 499.52,-157 499.52,-157"/>
<polygon fill="black" stroke="black" points="499.52,-153.5 489.52,-157 499.52,-160.5 499.52,-153.5"/>
</g>
<!-- ColorDirective -->
<g id="node4" class="node">
<title>ColorDirective</title>
<polygon fill="#ffffb3" stroke="black" points="489.97,-122 390.03,-122 390.03,-86 489.97,-86 489.97,-122"/>
<text text-anchor="middle" x="440" y="-99.8" font-family="Times,serif" font-size="14.00">ColorDirective</text>
</g>
<!-- ColorDirective&#45;&gt;SharedModule -->
<g id="edge4" class="edge">
<title>ColorDirective&#45;&gt;SharedModule</title>
<path fill="none" stroke="black" d="M440,-122.11C440,-122.11 440,-140.99 440,-140.99"/>
<polygon fill="black" stroke="black" points="436.5,-140.99 440,-150.99 443.5,-140.99 436.5,-140.99"/>
</g>
<!-- SelectComponent -->
<g id="node5" class="node">
<title>SelectComponent</title>
<polygon fill="#ffffb3" stroke="black" points="371.54,-122 256.46,-122 256.46,-86 371.54,-86 371.54,-122"/>
<text text-anchor="middle" x="314" y="-99.8" font-family="Times,serif" font-size="14.00">SelectComponent</text>
</g>
<!-- SelectComponent&#45;&gt;SharedModule -->
<g id="edge5" class="edge">
<title>SelectComponent&#45;&gt;SharedModule</title>
<path fill="none" stroke="black" d="M357.52,-122.24C357.52,-137.57 357.52,-157 357.52,-157 357.52,-157 380.59,-157 380.59,-157"/>
<polygon fill="black" stroke="black" points="380.59,-160.5 390.59,-157 380.59,-153.5 380.59,-160.5"/>
</g>
<!-- TableauComponent -->
<g id="node6" class="node">
<title>TableauComponent</title>
<polygon fill="#ffffb3" stroke="black" points="238.42,-122 111.58,-122 111.58,-86 238.42,-86 238.42,-122"/>
<text text-anchor="middle" x="175" y="-99.8" font-family="Times,serif" font-size="14.00">TableauComponent</text>
</g>
<!-- TableauComponent&#45;&gt;SharedModule -->
<g id="edge6" class="edge">
<title>TableauComponent&#45;&gt;SharedModule</title>
<path fill="none" stroke="black" d="M222.34,-122.02C222.34,-139.37 222.34,-163 222.34,-163 222.34,-163 380.61,-163 380.61,-163"/>
<polygon fill="black" stroke="black" points="380.61,-166.5 390.61,-163 380.61,-159.5 380.61,-166.5"/>
</g>
<!-- TotalPipe -->
<g id="node7" class="node">
<title>TotalPipe</title>
<polygon fill="#ffffb3" stroke="black" points="94.44,-122 23.56,-122 23.56,-86 94.44,-86 94.44,-122"/>
<text text-anchor="middle" x="59" y="-99.8" font-family="Times,serif" font-size="14.00">TotalPipe</text>
</g>
<!-- TotalPipe&#45;&gt;SharedModule -->
<g id="edge7" class="edge">
<title>TotalPipe&#45;&gt;SharedModule</title>
<path fill="none" stroke="black" d="M76.63,-122.11C76.63,-141.34 76.63,-169 76.63,-169 76.63,-169 380.62,-169 380.62,-169"/>
<polygon fill="black" stroke="black" points="380.62,-172.5 390.62,-169 380.62,-165.5 380.62,-172.5"/>
</g>
<!-- BandeauComponent  -->
<g id="node9" class="node">
<title>BandeauComponent </title>
<polygon fill="#fb8072" stroke="black" points="917.81,-252 784.19,-252 784.19,-216 917.81,-216 917.81,-252"/>
<text text-anchor="middle" x="851" y="-229.8" font-family="Times,serif" font-size="14.00">BandeauComponent </text>
</g>
<!-- SharedModule&#45;&gt;BandeauComponent  -->
<g id="edge8" class="edge">
<title>SharedModule&#45;&gt;BandeauComponent </title>
<path fill="none" stroke="black" stroke-dasharray="5,2" d="M489.21,-175C586.46,-175 793.93,-175 793.93,-175 793.93,-175 793.93,-205.98 793.93,-205.98"/>
<polygon fill="black" stroke="black" points="790.44,-205.98 793.93,-215.98 797.44,-205.98 790.44,-205.98"/>
</g>
<!-- ButtonActionComponent  -->
<g id="node10" class="node">
<title>ButtonActionComponent </title>
<polygon fill="#fb8072" stroke="black" points="766.55,-252 605.45,-252 605.45,-216 766.55,-216 766.55,-252"/>
<text text-anchor="middle" x="686" y="-229.8" font-family="Times,serif" font-size="14.00">ButtonActionComponent </text>
</g>
<!-- SharedModule&#45;&gt;ButtonActionComponent  -->
<g id="edge9" class="edge">
<title>SharedModule&#45;&gt;ButtonActionComponent </title>
<path fill="none" stroke="black" stroke-dasharray="5,2" d="M489.66,-181C541.9,-181 616.6,-181 616.6,-181 616.6,-181 616.6,-205.76 616.6,-205.76"/>
<polygon fill="black" stroke="black" points="613.1,-205.76 616.6,-215.76 620.1,-205.76 613.1,-205.76"/>
</g>
<!-- ButtonComponent  -->
<g id="node11" class="node">
<title>ButtonComponent </title>
<polygon fill="#fb8072" stroke="black" points="587.45,-252 464.55,-252 464.55,-216 587.45,-216 587.45,-252"/>
<text text-anchor="middle" x="526" y="-229.8" font-family="Times,serif" font-size="14.00">ButtonComponent </text>
</g>
<!-- SharedModule&#45;&gt;ButtonComponent  -->
<g id="edge10" class="edge">
<title>SharedModule&#45;&gt;ButtonComponent </title>
<path fill="none" stroke="black" stroke-dasharray="5,2" d="M476.87,-187.11C476.87,-187.11 476.87,-205.99 476.87,-205.99"/>
<polygon fill="black" stroke="black" points="473.37,-205.99 476.87,-215.99 480.37,-205.99 473.37,-205.99"/>
</g>
<!-- ColorDirective  -->
<g id="node12" class="node">
<title>ColorDirective </title>
<polygon fill="#fb8072" stroke="black" points="446.97,-252 343.03,-252 343.03,-216 446.97,-216 446.97,-252"/>
<text text-anchor="middle" x="395" y="-229.8" font-family="Times,serif" font-size="14.00">ColorDirective </text>
</g>
<!-- SharedModule&#45;&gt;ColorDirective  -->
<g id="edge11" class="edge">
<title>SharedModule&#45;&gt;ColorDirective </title>
<path fill="none" stroke="black" stroke-dasharray="5,2" d="M418.76,-187.11C418.76,-187.11 418.76,-205.99 418.76,-205.99"/>
<polygon fill="black" stroke="black" points="415.26,-205.99 418.76,-215.99 422.26,-205.99 415.26,-205.99"/>
</g>
<!-- SelectComponent  -->
<g id="node13" class="node">
<title>SelectComponent </title>
<polygon fill="#fb8072" stroke="black" points="325.54,-252 206.46,-252 206.46,-216 325.54,-216 325.54,-252"/>
<text text-anchor="middle" x="266" y="-229.8" font-family="Times,serif" font-size="14.00">SelectComponent </text>
</g>
<!-- SharedModule&#45;&gt;SelectComponent  -->
<g id="edge12" class="edge">
<title>SharedModule&#45;&gt;SelectComponent </title>
<path fill="none" stroke="black" stroke-dasharray="5,2" d="M390.76,-181C347.32,-181 290.88,-181 290.88,-181 290.88,-181 290.88,-205.76 290.88,-205.76"/>
<polygon fill="black" stroke="black" points="287.38,-205.76 290.88,-215.76 294.38,-205.76 287.38,-205.76"/>
</g>
<!-- TableauComponent  -->
<g id="node14" class="node">
<title>TableauComponent </title>
<polygon fill="#fb8072" stroke="black" points="188.92,-252 59.08,-252 59.08,-216 188.92,-216 188.92,-252"/>
<text text-anchor="middle" x="124" y="-229.8" font-family="Times,serif" font-size="14.00">TableauComponent </text>
</g>
<!-- SharedModule&#45;&gt;TableauComponent  -->
<g id="edge13" class="edge">
<title>SharedModule&#45;&gt;TableauComponent </title>
<path fill="none" stroke="black" stroke-dasharray="5,2" d="M390.54,-175C307.82,-175 150.38,-175 150.38,-175 150.38,-175 150.38,-205.98 150.38,-205.98"/>
<polygon fill="black" stroke="black" points="146.88,-205.98 150.38,-215.98 153.88,-205.98 146.88,-205.98"/>
</g>
</g>
</svg>
