<?xml version="1.0" encoding="UTF-8" standalone="no"?>
<!DOCTYPE svg PUBLIC "-//W3C//DTD SVG 1.1//EN"
 "http://www.w3.org/Graphics/SVG/1.1/DTD/svg11.dtd">
<!-- Generated by graphviz version 2.46.0 (20210119.1425)
 -->
<!-- Title: dependencies Pages: 1 -->
<svg width="787pt" height="211pt"
 viewBox="0.00 0.00 787.00 211.00" xmlns="http://www.w3.org/2000/svg" xmlns:xlink="http://www.w3.org/1999/xlink">
<g id="graph0" class="graph" transform="scale(1 1) rotate(0) translate(4 207)">
<title>dependencies</title>
<polygon fill="white" stroke="transparent" points="-4,4 -4,-207 783,-207 783,4 -4,4"/>
<text text-anchor="start" x="368.51" y="-42.4" font-family="sans-serif" font-weight="bold" font-size="14.00">Legend</text>
<polygon fill="#ffffb3" stroke="transparent" points="155.5,-10 155.5,-30 175.5,-30 175.5,-10 155.5,-10"/>
<text text-anchor="start" x="179.13" y="-15.4" font-family="sans-serif" font-size="14.00"> &#160;Declarations</text>
<polygon fill="#8dd3c7" stroke="transparent" points="268.5,-10 268.5,-30 288.5,-30 288.5,-10 268.5,-10"/>
<text text-anchor="start" x="292.23" y="-15.4" font-family="sans-serif" font-size="14.00"> &#160;Module</text>
<polygon fill="#80b1d3" stroke="transparent" points="354.5,-10 354.5,-30 374.5,-30 374.5,-10 354.5,-10"/>
<text text-anchor="start" x="378.28" y="-15.4" font-family="sans-serif" font-size="14.00"> &#160;Bootstrap</text>
<polygon fill="#fdb462" stroke="transparent" points="451.5,-10 451.5,-30 471.5,-30 471.5,-10 451.5,-10"/>
<text text-anchor="start" x="475.17" y="-15.4" font-family="sans-serif" font-size="14.00"> &#160;Providers</text>
<polygon fill="#fb8072" stroke="transparent" points="547.5,-10 547.5,-30 567.5,-30 567.5,-10 547.5,-10"/>
<text text-anchor="start" x="571.23" y="-15.4" font-family="sans-serif" font-size="14.00"> &#160;Exports</text>
<g id="clust1" class="cluster">
<title>cluster_OrdersModule</title>
<polygon fill="none" stroke="black" stroke-dasharray="1,5" points="8,-70 8,-195 771,-195 771,-70 8,-70"/>
</g>
<g id="clust6" class="cluster">
<title>cluster_OrdersModule_imports</title>
<polygon fill="none" stroke="black" points="488,-78 488,-130 763,-130 763,-78 488,-78"/>
</g>
<g id="clust2" class="cluster">
<title>cluster_OrdersModule_declarations</title>
<polygon fill="none" stroke="black" points="16,-78 16,-130 480,-130 480,-78 16,-78"/>
</g>
<!-- OrderAddComponent -->
<g id="node1" class="node">
<title>OrderAddComponent</title>
<polygon fill="#ffffb3" stroke="black" points="472.08,-122 333.92,-122 333.92,-86 472.08,-86 472.08,-122"/>
<text text-anchor="middle" x="403" y="-99.8" font-family="Times,serif" font-size="14.00">OrderAddComponent</text>
</g>
<!-- OrdersModule -->
<g id="node4" class="node">
<title>OrdersModule</title>
<polygon fill="#8dd3c7" stroke="black" points="451.64,-187 448.64,-191 427.64,-191 424.64,-187 354.36,-187 354.36,-151 451.64,-151 451.64,-187"/>
<text text-anchor="middle" x="403" y="-164.8" font-family="Times,serif" font-size="14.00">OrdersModule</text>
</g>
<!-- OrderAddComponent&#45;&gt;OrdersModule -->
<g id="edge1" class="edge">
<title>OrderAddComponent&#45;&gt;OrdersModule</title>
<path fill="none" stroke="black" d="M403,-122.11C403,-122.11 403,-140.99 403,-140.99"/>
<polygon fill="black" stroke="black" points="399.5,-140.99 403,-150.99 406.5,-140.99 399.5,-140.99"/>
</g>
<!-- OrderEditComponent -->
<g id="node2" class="node">
<title>OrderEditComponent</title>
<polygon fill="#ffffb3" stroke="black" points="315.81,-122 178.19,-122 178.19,-86 315.81,-86 315.81,-122"/>
<text text-anchor="middle" x="247" y="-99.8" font-family="Times,serif" font-size="14.00">OrderEditComponent</text>
</g>
<!-- OrderEditComponent&#45;&gt;OrdersModule -->
<g id="edge2" class="edge">
<title>OrderEditComponent&#45;&gt;OrdersModule</title>
<path fill="none" stroke="black" d="M247,-122.02C247,-139.37 247,-163 247,-163 247,-163 344.07,-163 344.07,-163"/>
<polygon fill="black" stroke="black" points="344.07,-166.5 354.07,-163 344.07,-159.5 344.07,-166.5"/>
</g>
<!-- OrderListComponent -->
<g id="node3" class="node">
<title>OrderListComponent</title>
<polygon fill="#ffffb3" stroke="black" points="159.75,-122 24.25,-122 24.25,-86 159.75,-86 159.75,-122"/>
<text text-anchor="middle" x="92" y="-99.8" font-family="Times,serif" font-size="14.00">OrderListComponent</text>
</g>
<!-- OrderListComponent&#45;&gt;OrdersModule -->
<g id="edge3" class="edge">
<title>OrderListComponent&#45;&gt;OrdersModule</title>
<path fill="none" stroke="black" d="M92,-122.28C92,-143.32 92,-175 92,-175 92,-175 344.06,-175 344.06,-175"/>
<polygon fill="black" stroke="black" points="344.06,-178.5 354.06,-175 344.06,-171.5 344.06,-178.5"/>
</g>
<!-- OrdersRoutingModule -->
<g id="node5" class="node">
<title>OrdersRoutingModule</title>
<polygon fill="#8dd3c7" stroke="black" points="755.25,-122 752.25,-126 731.25,-126 728.25,-122 612.75,-122 612.75,-86 755.25,-86 755.25,-122"/>
<text text-anchor="middle" x="684" y="-99.8" font-family="Times,serif" font-size="14.00">OrdersRoutingModule</text>
</g>
<!-- OrdersRoutingModule&#45;&gt;OrdersModule -->
<g id="edge4" class="edge">
<title>OrdersRoutingModule&#45;&gt;OrdersModule</title>
<path fill="none" stroke="black" d="M684,-122.28C684,-143.32 684,-175 684,-175 684,-175 461.95,-175 461.95,-175"/>
<polygon fill="black" stroke="black" points="461.95,-171.5 451.95,-175 461.95,-178.5 461.95,-171.5"/>
</g>
<!-- SharedModule -->
<g id="node6" class="node">
<title>SharedModule</title>
<polygon fill="#8dd3c7" stroke="black" points="594.42,-122 591.42,-126 570.42,-126 567.42,-122 495.58,-122 495.58,-86 594.42,-86 594.42,-122"/>
<text text-anchor="middle" x="545" y="-99.8" font-family="Times,serif" font-size="14.00">SharedModule</text>
</g>
<!-- SharedModule&#45;&gt;OrdersModule -->
<g id="edge5" class="edge">
<title>SharedModule&#45;&gt;OrdersModule</title>
<path fill="none" stroke="black" d="M545,-122.02C545,-139.37 545,-163 545,-163 545,-163 461.87,-163 461.87,-163"/>
<polygon fill="black" stroke="black" points="461.87,-159.5 451.87,-163 461.87,-166.5 461.87,-159.5"/>
</g>
</g>
</svg>
