<?xml version="1.0" encoding="UTF-8" standalone="no"?>
<!DOCTYPE svg PUBLIC "-//W3C//DTD SVG 1.1//EN"
 "http://www.w3.org/Graphics/SVG/1.1/DTD/svg11.dtd">
<!-- Generated by graphviz version 2.46.0 (20210119.1425)
 -->
<!-- Title: dependencies Pages: 1 -->
<svg width="1314pt" height="211pt"
 viewBox="0.00 0.00 1314.00 211.00" xmlns="http://www.w3.org/2000/svg" xmlns:xlink="http://www.w3.org/1999/xlink">
<g id="graph0" class="graph" transform="scale(1 1) rotate(0) translate(4 207)">
<title>dependencies</title>
<polygon fill="white" stroke="transparent" points="-4,4 -4,-207 1310,-207 1310,4 -4,4"/>
<text text-anchor="start" x="632.01" y="-42.4" font-family="sans-serif" font-weight="bold" font-size="14.00">Legend</text>
<polygon fill="#ffffb3" stroke="transparent" points="419,-10 419,-30 439,-30 439,-10 419,-10"/>
<text text-anchor="start" x="442.63" y="-15.4" font-family="sans-serif" font-size="14.00"> &#160;Declarations</text>
<polygon fill="#8dd3c7" stroke="transparent" points="532,-10 532,-30 552,-30 552,-10 532,-10"/>
<text text-anchor="start" x="555.73" y="-15.4" font-family="sans-serif" font-size="14.00"> &#160;Module</text>
<polygon fill="#80b1d3" stroke="transparent" points="618,-10 618,-30 638,-30 638,-10 618,-10"/>
<text text-anchor="start" x="641.78" y="-15.4" font-family="sans-serif" font-size="14.00"> &#160;Bootstrap</text>
<polygon fill="#fdb462" stroke="transparent" points="715,-10 715,-30 735,-30 735,-10 715,-10"/>
<text text-anchor="start" x="738.67" y="-15.4" font-family="sans-serif" font-size="14.00"> &#160;Providers</text>
<polygon fill="#fb8072" stroke="transparent" points="811,-10 811,-30 831,-30 831,-10 811,-10"/>
<text text-anchor="start" x="834.73" y="-15.4" font-family="sans-serif" font-size="14.00"> &#160;Exports</text>
<g id="clust1" class="cluster">
<title>cluster_ClientsModule</title>
<polygon fill="none" stroke="black" stroke-dasharray="1,5" points="8,-70 8,-195 1298,-195 1298,-70 8,-70"/>
</g>
<g id="clust2" class="cluster">
<title>cluster_ClientsModule_declarations</title>
<polygon fill="none" stroke="black" points="300,-78 300,-130 1290,-130 1290,-78 300,-78"/>
</g>
<g id="clust9" class="cluster">
<title>cluster_ClientsModule_imports</title>
<polygon fill="none" stroke="black" points="16,-78 16,-130 292,-130 292,-78 16,-78"/>
</g>
<!-- ClientAddComponent -->
<g id="node1" class="node">
<title>ClientAddComponent</title>
<polygon fill="#ffffb3" stroke="black" points="1281.66,-122 1142.34,-122 1142.34,-86 1281.66,-86 1281.66,-122"/>
<text text-anchor="middle" x="1212" y="-99.8" font-family="Times,serif" font-size="14.00">ClientAddComponent</text>
</g>
<!-- ClientsModule -->
<g id="node7" class="node">
<title>ClientsModule</title>
<polygon fill="#8dd3c7" stroke="black" points="666.72,-187 663.72,-191 642.72,-191 639.72,-187 567.28,-187 567.28,-151 666.72,-151 666.72,-187"/>
<text text-anchor="middle" x="617" y="-164.8" font-family="Times,serif" font-size="14.00">ClientsModule</text>
</g>
<!-- ClientAddComponent&#45;&gt;ClientsModule -->
<g id="edge1" class="edge">
<title>ClientAddComponent&#45;&gt;ClientsModule</title>
<path fill="none" stroke="black" d="M1212,-122.29C1212,-144.21 1212,-178 1212,-178 1212,-178 676.71,-178 676.71,-178"/>
<polygon fill="black" stroke="black" points="676.71,-174.5 666.71,-178 676.71,-181.5 676.71,-174.5"/>
</g>
<!-- ClientCommentComponent -->
<g id="node2" class="node">
<title>ClientCommentComponent</title>
<polygon fill="#ffffb3" stroke="black" points="1124.28,-122 953.72,-122 953.72,-86 1124.28,-86 1124.28,-122"/>
<text text-anchor="middle" x="1039" y="-99.8" font-family="Times,serif" font-size="14.00">ClientCommentComponent</text>
</g>
<!-- ClientCommentComponent&#45;&gt;ClientsModule -->
<g id="edge2" class="edge">
<title>ClientCommentComponent&#45;&gt;ClientsModule</title>
<path fill="none" stroke="black" d="M1039,-122.11C1039,-141.34 1039,-169 1039,-169 1039,-169 676.65,-169 676.65,-169"/>
<polygon fill="black" stroke="black" points="676.65,-165.5 666.65,-169 676.65,-172.5 676.65,-165.5"/>
</g>
<!-- ClientDeleteComponent -->
<g id="node3" class="node">
<title>ClientDeleteComponent</title>
<polygon fill="#ffffb3" stroke="black" points="936.09,-122 783.91,-122 783.91,-86 936.09,-86 936.09,-122"/>
<text text-anchor="middle" x="860" y="-99.8" font-family="Times,serif" font-size="14.00">ClientDeleteComponent</text>
</g>
<!-- ClientDeleteComponent&#45;&gt;ClientsModule -->
<g id="edge3" class="edge">
<title>ClientDeleteComponent&#45;&gt;ClientsModule</title>
<path fill="none" stroke="black" d="M860,-122.03C860,-138.4 860,-160 860,-160 860,-160 676.76,-160 676.76,-160"/>
<polygon fill="black" stroke="black" points="676.76,-156.5 666.76,-160 676.76,-163.5 676.76,-156.5"/>
</g>
<!-- ClientEditComponent -->
<g id="node4" class="node">
<title>ClientEditComponent</title>
<polygon fill="#ffffb3" stroke="black" points="766.39,-122 627.61,-122 627.61,-86 766.39,-86 766.39,-122"/>
<text text-anchor="middle" x="697" y="-99.8" font-family="Times,serif" font-size="14.00">ClientEditComponent</text>
</g>
<!-- ClientEditComponent&#45;&gt;ClientsModule -->
<g id="edge4" class="edge">
<title>ClientEditComponent&#45;&gt;ClientsModule</title>
<path fill="none" stroke="black" d="M647.08,-122.11C647.08,-122.11 647.08,-140.99 647.08,-140.99"/>
<polygon fill="black" stroke="black" points="643.58,-140.99 647.08,-150.99 650.58,-140.99 643.58,-140.99"/>
</g>
<!-- ClientFormComponent -->
<g id="node5" class="node">
<title>ClientFormComponent</title>
<polygon fill="#ffffb3" stroke="black" points="609.89,-122 464.11,-122 464.11,-86 609.89,-86 609.89,-122"/>
<text text-anchor="middle" x="537" y="-99.8" font-family="Times,serif" font-size="14.00">ClientFormComponent</text>
</g>
<!-- ClientFormComponent&#45;&gt;ClientsModule -->
<g id="edge5" class="edge">
<title>ClientFormComponent&#45;&gt;ClientsModule</title>
<path fill="none" stroke="black" d="M588.67,-122.11C588.67,-122.11 588.67,-140.99 588.67,-140.99"/>
<polygon fill="black" stroke="black" points="585.17,-140.99 588.67,-150.99 592.17,-140.99 585.17,-140.99"/>
</g>
<!-- ClientListComponent -->
<g id="node6" class="node">
<title>ClientListComponent</title>
<polygon fill="#ffffb3" stroke="black" points="445.83,-122 308.17,-122 308.17,-86 445.83,-86 445.83,-122"/>
<text text-anchor="middle" x="377" y="-99.8" font-family="Times,serif" font-size="14.00">ClientListComponent</text>
</g>
<!-- ClientListComponent&#45;&gt;ClientsModule -->
<g id="edge6" class="edge">
<title>ClientListComponent&#45;&gt;ClientsModule</title>
<path fill="none" stroke="black" d="M377,-122.03C377,-138.4 377,-160 377,-160 377,-160 557.27,-160 557.27,-160"/>
<polygon fill="black" stroke="black" points="557.27,-163.5 567.27,-160 557.27,-156.5 557.27,-163.5"/>
</g>
<!-- ClientsRoutingModule -->
<g id="node8" class="node">
<title>ClientsRoutingModule</title>
<polygon fill="#8dd3c7" stroke="black" points="284.34,-122 281.34,-126 260.34,-126 257.34,-122 139.66,-122 139.66,-86 284.34,-86 284.34,-122"/>
<text text-anchor="middle" x="212" y="-99.8" font-family="Times,serif" font-size="14.00">ClientsRoutingModule</text>
</g>
<!-- ClientsRoutingModule&#45;&gt;ClientsModule -->
<g id="edge7" class="edge">
<title>ClientsRoutingModule&#45;&gt;ClientsModule</title>
<path fill="none" stroke="black" d="M212,-122.11C212,-141.34 212,-169 212,-169 212,-169 557.34,-169 557.34,-169"/>
<polygon fill="black" stroke="black" points="557.34,-172.5 567.34,-169 557.34,-165.5 557.34,-172.5"/>
</g>
<!-- SharedModule -->
<g id="node9" class="node">
<title>SharedModule</title>
<polygon fill="#8dd3c7" stroke="black" points="122.42,-122 119.42,-126 98.42,-126 95.42,-122 23.58,-122 23.58,-86 122.42,-86 122.42,-122"/>
<text text-anchor="middle" x="73" y="-99.8" font-family="Times,serif" font-size="14.00">SharedModule</text>
</g>
<!-- SharedModule&#45;&gt;ClientsModule -->
<g id="edge8" class="edge">
<title>SharedModule&#45;&gt;ClientsModule</title>
<path fill="none" stroke="black" d="M73,-122.29C73,-144.21 73,-178 73,-178 73,-178 557.28,-178 557.28,-178"/>
<polygon fill="black" stroke="black" points="557.28,-181.5 567.28,-178 557.28,-174.5 557.28,-181.5"/>
</g>
</g>
</svg>
