<?xml version="1.0" encoding="UTF-8" standalone="no"?>
<!DOCTYPE svg PUBLIC "-//W3C//DTD SVG 1.1//EN"
 "http://www.w3.org/Graphics/SVG/1.1/DTD/svg11.dtd">
<!-- Generated by graphviz version 2.46.0 (20210119.1425)
 -->
<!-- Title: dependencies Pages: 1 -->
<svg width="739pt" height="284pt"
 viewBox="0.00 0.00 739.00 284.00" xmlns="http://www.w3.org/2000/svg" xmlns:xlink="http://www.w3.org/1999/xlink">
<g id="graph0" class="graph" transform="scale(1 1) rotate(0) translate(4 280)">
<title>dependencies</title>
<polygon fill="white" stroke="transparent" points="-4,4 -4,-280 735,-280 735,4 -4,4"/>
<text text-anchor="start" x="344.51" y="-42.4" font-family="sans-serif" font-weight="bold" font-size="14.00">Legend</text>
<polygon fill="#ffffb3" stroke="transparent" points="131.5,-10 131.5,-30 151.5,-30 151.5,-10 131.5,-10"/>
<text text-anchor="start" x="155.13" y="-15.4" font-family="sans-serif" font-size="14.00"> &#160;Declarations</text>
<polygon fill="#8dd3c7" stroke="transparent" points="244.5,-10 244.5,-30 264.5,-30 264.5,-10 244.5,-10"/>
<text text-anchor="start" x="268.23" y="-15.4" font-family="sans-serif" font-size="14.00"> &#160;Module</text>
<polygon fill="#80b1d3" stroke="transparent" points="330.5,-10 330.5,-30 350.5,-30 350.5,-10 330.5,-10"/>
<text text-anchor="start" x="354.28" y="-15.4" font-family="sans-serif" font-size="14.00"> &#160;Bootstrap</text>
<polygon fill="#fdb462" stroke="transparent" points="427.5,-10 427.5,-30 447.5,-30 447.5,-10 427.5,-10"/>
<text text-anchor="start" x="451.17" y="-15.4" font-family="sans-serif" font-size="14.00"> &#160;Providers</text>
<polygon fill="#fb8072" stroke="transparent" points="523.5,-10 523.5,-30 543.5,-30 543.5,-10 523.5,-10"/>
<text text-anchor="start" x="547.23" y="-15.4" font-family="sans-serif" font-size="14.00"> &#160;Exports</text>
<g id="clust1" class="cluster">
<title>cluster_AppModule</title>
<polygon fill="none" stroke="black" stroke-dasharray="1,5" points="8,-70 8,-268 723,-268 723,-70 8,-70"/>
</g>
<g id="clust2" class="cluster">
<title>cluster_AppModule_declarations</title>
<polygon fill="none" stroke="black" points="593,-78 593,-130 715,-130 715,-78 593,-78"/>
</g>
<g id="clust4" class="cluster">
<title>cluster_AppModule_imports</title>
<polygon fill="none" stroke="black" points="16,-78 16,-130 585,-130 585,-78 16,-78"/>
</g>
<g id="clust6" class="cluster">
<title>cluster_AppModule_bootstrap</title>
<polygon fill="none" stroke="black" points="271,-208 271,-260 395,-260 395,-208 271,-208"/>
</g>
<!-- AppComponent -->
<g id="node1" class="node">
<title>AppComponent</title>
<polygon fill="#ffffb3" stroke="black" points="706.94,-122 601.06,-122 601.06,-86 706.94,-86 706.94,-122"/>
<text text-anchor="middle" x="654" y="-99.8" font-family="Times,serif" font-size="14.00">AppComponent</text>
</g>
<!-- AppModule -->
<g id="node2" class="node">
<title>AppModule</title>
<polygon fill="#8dd3c7" stroke="black" points="374.66,-187 371.66,-191 350.66,-191 347.66,-187 291.34,-187 291.34,-151 374.66,-151 374.66,-187"/>
<text text-anchor="middle" x="333" y="-164.8" font-family="Times,serif" font-size="14.00">AppModule</text>
</g>
<!-- AppComponent&#45;&gt;AppModule -->
<g id="edge1" class="edge">
<title>AppComponent&#45;&gt;AppModule</title>
<path fill="none" stroke="black" d="M654,-122.28C654,-143.32 654,-175 654,-175 654,-175 384.97,-175 384.97,-175"/>
<polygon fill="black" stroke="black" points="384.97,-171.5 374.97,-175 384.97,-178.5 384.97,-171.5"/>
</g>
<!-- AppComponent  -->
<g id="node8" class="node">
<title>AppComponent </title>
<polygon fill="#80b1d3" stroke="black" points="387.44,-252 278.56,-252 278.56,-216 387.44,-216 387.44,-252"/>
<text text-anchor="middle" x="333" y="-229.8" font-family="Times,serif" font-size="14.00">AppComponent </text>
</g>
<!-- AppModule&#45;&gt;AppComponent  -->
<g id="edge7" class="edge">
<title>AppModule&#45;&gt;AppComponent </title>
<path fill="none" stroke="black" stroke-dasharray="1,5" d="M333,-187.11C333,-187.11 333,-205.99 333,-205.99"/>
<polygon fill="black" stroke="black" points="329.5,-205.99 333,-215.99 336.5,-205.99 329.5,-205.99"/>
</g>
<!-- AppRoutingModule -->
<g id="node3" class="node">
<title>AppRoutingModule</title>
<polygon fill="#8dd3c7" stroke="black" points="577.27,-122 574.27,-126 553.27,-126 550.27,-122 448.73,-122 448.73,-86 577.27,-86 577.27,-122"/>
<text text-anchor="middle" x="513" y="-99.8" font-family="Times,serif" font-size="14.00">AppRoutingModule</text>
</g>
<!-- AppRoutingModule&#45;&gt;AppModule -->
<g id="edge2" class="edge">
<title>AppRoutingModule&#45;&gt;AppModule</title>
<path fill="none" stroke="black" d="M513,-122.02C513,-139.37 513,-163 513,-163 513,-163 384.75,-163 384.75,-163"/>
<polygon fill="black" stroke="black" points="384.75,-159.5 374.75,-163 384.75,-166.5 384.75,-159.5"/>
</g>
<!-- CoreModule -->
<g id="node4" class="node">
<title>CoreModule</title>
<polygon fill="#8dd3c7" stroke="black" points="430.26,-122 427.26,-126 406.26,-126 403.26,-122 343.74,-122 343.74,-86 430.26,-86 430.26,-122"/>
<text text-anchor="middle" x="387" y="-99.8" font-family="Times,serif" font-size="14.00">CoreModule</text>
</g>
<!-- CoreModule&#45;&gt;AppModule -->
<g id="edge3" class="edge">
<title>CoreModule&#45;&gt;AppModule</title>
<path fill="none" stroke="black" d="M359.22,-122.11C359.22,-122.11 359.22,-140.99 359.22,-140.99"/>
<polygon fill="black" stroke="black" points="355.72,-140.99 359.22,-150.99 362.72,-140.99 355.72,-140.99"/>
</g>
<!-- LoginModule -->
<g id="node5" class="node">
<title>LoginModule</title>
<polygon fill="#8dd3c7" stroke="black" points="325.49,-122 322.49,-126 301.49,-126 298.49,-122 232.51,-122 232.51,-86 325.49,-86 325.49,-122"/>
<text text-anchor="middle" x="279" y="-99.8" font-family="Times,serif" font-size="14.00">LoginModule</text>
</g>
<!-- LoginModule&#45;&gt;AppModule -->
<g id="edge4" class="edge">
<title>LoginModule&#45;&gt;AppModule</title>
<path fill="none" stroke="black" d="M308.33,-122.11C308.33,-122.11 308.33,-140.99 308.33,-140.99"/>
<polygon fill="black" stroke="black" points="304.83,-140.99 308.33,-150.99 311.83,-140.99 304.83,-140.99"/>
</g>
<!-- SharedModule -->
<g id="node6" class="node">
<title>SharedModule</title>
<polygon fill="#8dd3c7" stroke="black" points="214.42,-122 211.42,-126 190.42,-126 187.42,-122 115.58,-122 115.58,-86 214.42,-86 214.42,-122"/>
<text text-anchor="middle" x="165" y="-99.8" font-family="Times,serif" font-size="14.00">SharedModule</text>
</g>
<!-- SharedModule&#45;&gt;AppModule -->
<g id="edge5" class="edge">
<title>SharedModule&#45;&gt;AppModule</title>
<path fill="none" stroke="black" d="M165,-122.02C165,-139.37 165,-163 165,-163 165,-163 281.04,-163 281.04,-163"/>
<polygon fill="black" stroke="black" points="281.04,-166.5 291.04,-163 281.04,-159.5 281.04,-166.5"/>
</g>
<!-- UiModule -->
<g id="node7" class="node">
<title>UiModule</title>
<polygon fill="#8dd3c7" stroke="black" points="97.55,-122 94.55,-126 73.55,-126 70.55,-122 24.45,-122 24.45,-86 97.55,-86 97.55,-122"/>
<text text-anchor="middle" x="61" y="-99.8" font-family="Times,serif" font-size="14.00">UiModule</text>
</g>
<!-- UiModule&#45;&gt;AppModule -->
<g id="edge6" class="edge">
<title>UiModule&#45;&gt;AppModule</title>
<path fill="none" stroke="black" d="M61,-122.28C61,-143.32 61,-175 61,-175 61,-175 281.1,-175 281.1,-175"/>
<polygon fill="black" stroke="black" points="281.1,-178.5 291.1,-175 281.1,-171.5 281.1,-178.5"/>
</g>
</g>
</svg>
